<svg 
	 width="64px" height="64px" >
<g>
	<path d="M12.476,18.525c0.004,0.807,0.36,1.237,0.993,1.244c0.651,0.008,0.996-0.404,0.997-1.217
		c0.003-2.7,0.007-5.401-0.002-8.101c-0.004-1.338-0.777-2.1-2.131-2.107c-2.031-0.01-4.061-0.009-6.092-0.003
		c-1.463,0.005-2.229,0.771-2.233,2.228c-0.005,2.031-0.002,4.062-0.001,6.093c0,0.714-0.021,1.429,0.01,2.142
		c0.025,0.585,0.445,0.966,0.988,0.967c0.55,0.001,0.948-0.375,0.998-0.957c0.015-0.177,0.005-0.357,0.005-0.536
		c0-1.83-0.005-3.66,0.01-5.49c0.001-0.157,0.138-0.313,0.211-0.47c0.097,0.16,0.218,0.311,0.282,0.484
		c0.044,0.118,0.009,0.265,0.009,0.399c0,5.423-0.001,10.846,0,16.27c0,0.956,0.445,1.514,1.204,1.529
		c0.804,0.016,1.256-0.528,1.259-1.54c0.005-1.562,0.001-3.125,0.001-4.687c0-1.495-0.01-2.991,0.012-4.486
		c0.003-0.182,0.172-0.362,0.263-0.542c0.078,0.032,0.157,0.063,0.235,0.095c0,0.264,0,0.528,0,0.792
		c0,2.991,0.002,5.981-0.002,8.972c-0.001,0.559,0.166,1.09,0.711,1.237c0.399,0.108,0.988,0.084,1.283-0.148
		c0.304-0.239,0.493-0.8,0.496-1.222c0.031-5.49,0.02-10.98,0.018-16.47c0-0.089-0.033-0.189-0.004-0.265
		c0.056-0.144,0.146-0.275,0.221-0.412c0.084,0.126,0.219,0.243,0.242,0.379c0.041,0.239,0.016,0.489,0.015,0.734
		C12.476,15.132,12.469,16.828,12.476,18.525z"/>
	<path d="M11.235,5.505c0.008-1.112-0.877-2.007-1.983-2.006C8.144,3.5,7.239,4.399,7.246,5.492c0.007,1.07,0.888,1.951,1.961,1.963
		C10.344,7.468,11.227,6.618,11.235,5.505z"/>
	<path d="M28.988,10.451c-0.004-1.338-0.777-2.1-2.131-2.107c-2.031-0.01-4.061-0.009-6.092-0.003
		c-1.463,0.005-2.229,0.771-2.233,2.228c-0.005,2.031-0.002,4.062-0.001,6.093c0,0.714-0.021,1.429,0.01,2.142
		c0.025,0.585,0.445,0.966,0.988,0.967c0.55,0.001,0.948-0.375,0.998-0.957c0.015-0.177,0.005-0.357,0.005-0.536
		c0-1.83-0.005-3.66,0.01-5.49c0.001-0.157,0.138-0.313,0.211-0.47c0.097,0.16,0.218,0.311,0.282,0.484
		c0.044,0.118,0.009,0.265,0.009,0.399c0,5.423-0.001,10.846,0,16.27c0,0.956,0.445,1.514,1.204,1.529
		c0.804,0.016,1.256-0.528,1.259-1.54c0.005-1.562,0.001-3.125,0.001-4.687c0-1.495-0.01-2.991,0.012-4.486
		c0.003-0.182,0.172-0.362,0.263-0.542c0.078,0.032,0.157,0.063,0.235,0.095c0,0.264,0,0.528,0,0.792
		c0,2.991,0.002,5.981-0.002,8.972c-0.001,0.559,0.166,1.09,0.712,1.237c0.399,0.108,0.988,0.084,1.283-0.148
		c0.304-0.239,0.493-0.8,0.496-1.222c0.031-5.49,0.02-10.98,0.018-16.47c0-0.089-0.033-0.189-0.004-0.265
		c0.056-0.144,0.146-0.275,0.221-0.412c0.085,0.126,0.219,0.243,0.243,0.379C27.026,12.94,27,13.191,27,13.436
		c-0.001,1.696-0.008,3.392,0,5.089c0.004,0.807,0.36,1.237,0.993,1.244c0.651,0.008,0.996-0.404,0.997-1.217
		C28.993,15.851,28.996,13.151,28.988,10.451z"/>
	<path d="M23.776,3.5C22.667,3.5,21.762,4.399,21.77,5.492c0.007,1.07,0.888,1.951,1.961,1.963c1.136,0.012,2.019-0.837,2.027-1.95
		C25.767,4.394,24.882,3.499,23.776,3.5z"/>
	<path d="M44.464,10.451c-0.004-1.338-0.777-2.1-2.131-2.107c-2.031-0.01-4.061-0.009-6.092-0.003
		c-1.463,0.005-2.229,0.771-2.233,2.228c-0.005,2.031-0.002,4.062-0.001,6.093c0,0.714-0.021,1.429,0.01,2.142
		c0.025,0.585,0.445,0.966,0.988,0.967c0.55,0.001,0.948-0.375,0.998-0.957c0.015-0.177,0.005-0.357,0.005-0.536
		c0-1.83-0.005-3.66,0.01-5.49c0.001-0.157,0.138-0.313,0.211-0.47c0.097,0.16,0.218,0.311,0.282,0.484
		c0.044,0.118,0.009,0.265,0.009,0.399c0,5.423-0.001,10.846,0,16.27c0,0.956,0.445,1.514,1.204,1.529
		c0.804,0.016,1.256-0.528,1.259-1.54c0.005-1.562,0.001-3.125,0.001-4.687c0-1.495-0.01-2.991,0.012-4.486
		c0.003-0.182,0.172-0.362,0.263-0.542c0.078,0.032,0.157,0.063,0.235,0.095c0,0.264,0,0.528,0,0.792
		c0,2.991,0.002,5.981-0.002,8.972c-0.001,0.559,0.166,1.09,0.711,1.237c0.399,0.108,0.988,0.084,1.283-0.148
		c0.304-0.239,0.493-0.8,0.496-1.222c0.031-5.49,0.02-10.98,0.018-16.47c0-0.089-0.033-0.189-0.004-0.265
		c0.056-0.144,0.146-0.275,0.221-0.412c0.084,0.126,0.219,0.243,0.242,0.379c0.041,0.239,0.016,0.489,0.015,0.734
		c-0.001,1.696-0.008,3.392,0,5.089c0.004,0.807,0.36,1.237,0.993,1.244c0.651,0.008,0.996-0.404,0.997-1.217
		C44.469,15.851,44.473,13.151,44.464,10.451z"/>
	<path d="M39.252,3.5c-1.109,0.001-2.013,0.899-2.006,1.993c0.007,1.07,0.888,1.951,1.961,1.963c1.136,0.012,2.019-0.837,2.027-1.95
		C41.243,4.394,40.358,3.499,39.252,3.5z"/>
	<path d="M48.531,10.569c-0.005,2.031-0.002,4.062-0.001,6.093c0,0.714-0.021,1.429,0.01,2.142c0.025,0.585,0.445,0.966,0.988,0.967
		c0.55,0.001,0.948-0.375,0.998-0.957c0.015-0.177,0.005-0.357,0.005-0.536c0-1.83-0.005-3.66,0.01-5.49
		c0.001-0.157,0.138-0.313,0.211-0.47c0.097,0.16,0.218,0.311,0.282,0.484c0.044,0.118,0.009,0.265,0.009,0.399
		c0,5.423-0.001,10.846,0,16.27c0,0.956,0.445,1.514,1.204,1.529c0.804,0.016,1.256-0.528,1.259-1.54
		c0.005-1.562,0.001-3.125,0.001-4.687c0-1.495-0.01-2.991,0.012-4.486c0.003-0.182,0.172-0.362,0.263-0.542
		c0.078,0.032,0.157,0.063,0.235,0.095c0,0.264,0,0.528,0,0.792c0,2.991,0.002,5.981-0.002,8.972
		c-0.001,0.559,0.166,1.09,0.712,1.237c0.399,0.108,0.988,0.084,1.283-0.148c0.304-0.239,0.493-0.8,0.496-1.222
		c0.031-5.49,0.02-10.98,0.018-16.47c0-0.089-0.033-0.189-0.004-0.265c0.056-0.144,0.146-0.275,0.221-0.412
		c0.085,0.126,0.219,0.243,0.243,0.379C57.026,12.94,57,13.191,57,13.436c-0.001,1.696-0.008,3.392,0,5.089
		c0.004,0.807,0.36,1.237,0.993,1.244c0.651,0.008,0.996-0.404,0.997-1.217c0.003-2.7,0.007-5.401-0.002-8.101
		c-0.004-1.338-0.777-2.1-2.131-2.107c-2.031-0.01-4.061-0.009-6.092-0.003C49.301,8.345,48.535,9.112,48.531,10.569z"/>
	<path d="M55.758,5.505c0.008-1.112-0.877-2.007-1.983-2.006C52.667,3.5,51.762,4.399,51.77,5.492
		c0.007,1.07,0.888,1.951,1.961,1.963C54.867,7.468,55.75,6.618,55.758,5.505z"/>
	<path d="M5.005,49.771c0.55,0.001,0.948-0.375,0.998-0.957c0.015-0.177,0.005-0.357,0.005-0.536c0-1.83-0.005-3.66,0.01-5.49
		c0.001-0.157,0.138-0.313,0.211-0.47c0.097,0.16,0.218,0.311,0.282,0.484c0.044,0.118,0.009,0.265,0.009,0.399
		c0,5.423-0.001,10.846,0,16.27c0,0.956,0.445,1.514,1.204,1.529c0.804,0.016,1.256-0.528,1.259-1.54
		c0.005-1.562,0.001-3.125,0.001-4.687c0-1.495-0.01-2.991,0.012-4.486c0.003-0.182,0.172-0.362,0.263-0.542
		c0.078,0.032,0.157,0.063,0.235,0.095c0,0.264,0,0.528,0,0.792c0,2.991,0.002,5.981-0.002,8.972
		c-0.001,0.559,0.166,1.09,0.711,1.237c0.399,0.108,0.988,0.084,1.283-0.148c0.304-0.239,0.493-0.8,0.496-1.222
		c0.031-5.49,0.02-10.98,0.018-16.47c0-0.089-0.033-0.189-0.004-0.265c0.056-0.144,0.146-0.275,0.221-0.412
		c0.084,0.126,0.219,0.243,0.242,0.379c0.041,0.239,0.016,0.489,0.015,0.734c-0.001,1.696-0.008,3.392,0,5.089
		c0.004,0.807,0.36,1.237,0.993,1.244c0.651,0.008,0.996-0.404,0.997-1.217c0.003-2.7,0.007-5.401-0.002-8.101
		c-0.004-1.338-0.777-2.1-2.131-2.107c-2.031-0.01-4.061-0.009-6.092-0.003c-1.463,0.005-2.229,0.771-2.233,2.228
		c-0.005,2.031-0.002,4.062-0.001,6.093c0,0.714-0.021,1.429,0.01,2.142C4.041,49.389,4.462,49.769,5.005,49.771z"/>
	<path d="M7.246,35.492c0.007,1.07,0.888,1.951,1.961,1.963c1.136,0.012,2.019-0.837,2.027-1.95
		c0.008-1.112-0.877-2.007-1.983-2.006C8.144,33.5,7.239,34.399,7.246,35.492z"/>
	<path d="M27,48.525c0.004,0.807,0.36,1.237,0.993,1.244c0.651,0.008,0.996-0.404,0.997-1.217c0.003-2.7,0.007-5.401-0.002-8.101
		c-0.004-1.338-0.777-2.1-2.131-2.107c-2.031-0.01-4.061-0.009-6.092-0.003c-1.463,0.005-2.229,0.771-2.233,2.228
		c-0.005,2.031-0.002,4.062-0.001,6.093c0,0.714-0.021,1.429,0.01,2.142c0.025,0.585,0.445,0.966,0.988,0.967
		c0.55,0.001,0.948-0.375,0.998-0.957c0.015-0.177,0.005-0.357,0.005-0.536c0-1.83-0.005-3.66,0.01-5.49
		c0.001-0.157,0.138-0.313,0.211-0.47c0.097,0.16,0.218,0.311,0.282,0.484c0.044,0.118,0.009,0.265,0.009,0.399
		c0,5.423-0.001,10.846,0,16.27c0,0.956,0.445,1.514,1.204,1.529c0.804,0.016,1.256-0.528,1.259-1.54
		c0.005-1.562,0.001-3.125,0.001-4.687c0-1.495-0.01-2.991,0.012-4.486c0.003-0.182,0.172-0.362,0.263-0.542
		c0.078,0.032,0.157,0.063,0.235,0.095c0,0.264,0,0.528,0,0.792c0,2.991,0.002,5.981-0.002,8.972
		c-0.001,0.559,0.166,1.09,0.712,1.237c0.399,0.108,0.988,0.084,1.283-0.148c0.304-0.239,0.493-0.8,0.496-1.222
		c0.031-5.49,0.02-10.98,0.018-16.47c0-0.089-0.033-0.189-0.004-0.265c0.056-0.144,0.146-0.275,0.221-0.412
		c0.085,0.126,0.219,0.243,0.243,0.379C27.026,42.94,27,43.191,27,43.436C26.999,45.132,26.992,46.828,27,48.525z"/>
	<path d="M25.758,35.505c0.008-1.112-0.877-2.007-1.983-2.006c-1.109,0.001-2.013,0.899-2.006,1.993
		c0.007,1.07,0.888,1.951,1.961,1.963C24.867,37.468,25.75,36.618,25.758,35.505z"/>
	<path d="M42.476,48.525c0.004,0.807,0.36,1.237,0.993,1.244c0.651,0.008,0.996-0.404,0.997-1.217
		c0.003-2.7,0.007-5.401-0.002-8.101c-0.004-1.338-0.777-2.1-2.131-2.107c-2.031-0.01-4.061-0.009-6.092-0.003
		c-1.463,0.005-2.229,0.771-2.233,2.228c-0.005,2.031-0.002,4.062-0.001,6.093c0,0.714-0.021,1.429,0.01,2.142
		c0.025,0.585,0.445,0.966,0.988,0.967c0.55,0.001,0.948-0.375,0.998-0.957c0.015-0.177,0.005-0.357,0.005-0.536
		c0-1.83-0.005-3.66,0.01-5.49c0.001-0.157,0.138-0.313,0.211-0.47c0.097,0.16,0.218,0.311,0.282,0.484
		c0.044,0.118,0.009,0.265,0.009,0.399c0,5.423-0.001,10.846,0,16.27c0,0.956,0.445,1.514,1.204,1.529
		c0.804,0.016,1.256-0.528,1.259-1.54c0.005-1.562,0.001-3.125,0.001-4.687c0-1.495-0.01-2.991,0.012-4.486
		c0.003-0.182,0.172-0.362,0.263-0.542c0.078,0.032,0.157,0.063,0.235,0.095c0,0.264,0,0.528,0,0.792
		c0,2.991,0.002,5.981-0.002,8.972c-0.001,0.559,0.166,1.09,0.711,1.237c0.399,0.108,0.988,0.084,1.283-0.148
		c0.304-0.239,0.493-0.8,0.496-1.222c0.031-5.49,0.02-10.98,0.018-16.47c0-0.089-0.033-0.189-0.004-0.265
		c0.056-0.144,0.146-0.275,0.221-0.412c0.084,0.126,0.219,0.243,0.242,0.379c0.041,0.239,0.016,0.489,0.015,0.734
		C42.476,45.132,42.469,46.828,42.476,48.525z"/>
	<path d="M41.235,35.505c0.008-1.112-0.877-2.007-1.983-2.006c-1.109,0.001-2.013,0.899-2.006,1.993
		c0.007,1.07,0.888,1.951,1.961,1.963C40.344,37.468,41.227,36.618,41.235,35.505z"/>
	<path d="M58.99,48.552c0.003-2.7,0.007-5.401-0.002-8.101c-0.004-1.338-0.777-2.1-2.131-2.107c-2.031-0.01-4.061-0.009-6.092-0.003
		c-1.463,0.005-2.229,0.771-2.233,2.228c-0.005,2.031-0.002,4.062-0.001,6.093c0,0.714-0.021,1.429,0.01,2.142
		c0.025,0.585,0.445,0.966,0.988,0.967c0.55,0.001,0.948-0.375,0.998-0.957c0.015-0.177,0.005-0.357,0.005-0.536
		c0-1.83-0.005-3.66,0.01-5.49c0.001-0.157,0.138-0.313,0.211-0.47c0.097,0.16,0.218,0.311,0.282,0.484
		c0.044,0.118,0.009,0.265,0.009,0.399c0,5.423-0.001,10.846,0,16.27c0,0.956,0.445,1.514,1.204,1.529
		c0.804,0.016,1.256-0.528,1.259-1.54c0.005-1.562,0.001-3.125,0.001-4.687c0-1.495-0.01-2.991,0.012-4.486
		c0.003-0.182,0.172-0.362,0.263-0.542c0.078,0.032,0.157,0.063,0.235,0.095c0,0.264,0,0.528,0,0.792
		c0,2.991,0.002,5.981-0.002,8.972c-0.001,0.559,0.166,1.09,0.712,1.237c0.399,0.108,0.988,0.084,1.283-0.148
		c0.304-0.239,0.493-0.8,0.496-1.222c0.031-5.49,0.02-10.98,0.018-16.47c0-0.089-0.033-0.189-0.004-0.265
		c0.056-0.144,0.146-0.275,0.221-0.412c0.085,0.126,0.219,0.243,0.243,0.379C57.026,42.94,57,43.191,57,43.436
		c-0.001,1.696-0.008,3.392,0,5.089c0.004,0.807,0.36,1.237,0.993,1.244C58.644,49.777,58.989,49.365,58.99,48.552z"/>
	<path d="M55.758,35.505c0.008-1.112-0.877-2.007-1.983-2.006c-1.109,0.001-2.013,0.899-2.006,1.993
		c0.007,1.07,0.888,1.951,1.961,1.963C54.867,37.468,55.75,36.618,55.758,35.505z"/>
</g>
</svg>
