<svg width="100px" height="100px" viewBox="0 0 100 100">
<path d="M46.902,99C47.524,95.74,48,92.447,48,88.423C48,76.039,44.642,66,40.5,66C36.357,66,33,76.039,33,88.423  c0,3.835,0.333,7.422,0.902,10.577"/>
<path d="M62.229,51.678c1.54,13.452,7.729,23.793,13.825,23.096c6.098-0.698,9.791-12.17,8.25-25.623  c-1.54-13.454-3.73-23.907-9.827-23.209C68.381,26.64,60.689,38.224,62.229,51.678z"/>
<path d="M76.583,27.178c1.485,2.701-4.507,8.94-13.382,13.931c-8.878,4.993-17.278,6.848-18.762,4.146  c-1.486-2.702,4.505-8.939,13.38-13.933C66.697,26.331,75.097,24.477,76.583,27.178z"/>
<ellipse cx="58.667" cy="69.676" rx="22" ry="8.108"/>
<ellipse cx="68.833" cy="12.979" rx="10.833" ry="10.98"/>
<path d="M3,49.241L58.636,49c0,0,3.438,2.889-0.239,7.223C54.719,60.555,3,62,3,62V49.241z"/>
<path d="M37,47c0,0,5-1,3.5-3.985c-0.225-0.447-23.04-1.329-23.04-1.329l-6.882-25.24c0,0-3.435-2.682-4.528,1.328  C4.963,21.76,12.804,47,12.804,47"/>
</svg>